<?xml version="1.0" encoding="utf-8" standalone="no"?>
<!DOCTYPE svg PUBLIC "-//W3C//DTD SVG 1.1//EN"
  "http://www.w3.org/Graphics/SVG/1.1/DTD/svg11.dtd">
<svg xmlns:xlink="http://www.w3.org/1999/xlink" width="287.724375pt" height="357.95625pt" viewBox="0 0 287.724375 357.95625" xmlns="http://www.w3.org/2000/svg" version="1.1">
 <metadata>
  <rdf:RDF xmlns:dc="http://purl.org/dc/elements/1.1/" xmlns:cc="http://creativecommons.org/ns#" xmlns:rdf="http://www.w3.org/1999/02/22-rdf-syntax-ns#">
   <cc:Work>
    <dc:type rdf:resource="http://purl.org/dc/dcmitype/StillImage"/>
    <dc:date>2024-06-27T16:34:04.134564</dc:date>
    <dc:format>image/svg+xml</dc:format>
    <dc:creator>
     <cc:Agent>
      <dc:title>Matplotlib v3.5.2, https://matplotlib.org/</dc:title>
     </cc:Agent>
    </dc:creator>
   </cc:Work>
  </rdf:RDF>
 </metadata>
 <defs>
  <style type="text/css">*{stroke-linejoin: round; stroke-linecap: butt}</style>
 </defs>
 <g id="figure_1">
  <g id="patch_1">
   <path d="M 0 357.95625 
L 287.724375 357.95625 
L 287.724375 0 
L 0 0 
z
" style="fill: #ffffff"/>
  </g>
  <g id="axes_1">
   <g id="patch_2">
    <path d="M 35.862187 124.729412 
L 259.062187 124.729412 
L 259.062187 43.2 
L 35.862187 43.2 
z
" style="fill: #ffffff"/>
   </g>
   <g id="matplotlib.axis_1">
    <g id="xtick_1">
     <g id="line2d_1">
      <path d="M 35.862187 124.729412 
L 35.862187 43.2 
" clip-path="url(#p0080c972e7)" style="fill: none; stroke: #b0b0b0; stroke-width: 0.8; stroke-linecap: square"/>
     </g>
     <g id="line2d_2">
      <defs>
       <path id="md1a11f4e99" d="M 0 0 
L 0 3.5 
" style="stroke: #000000; stroke-width: 0.8"/>
      </defs>
      <g>
       <use xlink:href="#md1a11f4e99" x="35.862187" y="124.729412" style="stroke: #000000; stroke-width: 0.8"/>
      </g>
     </g>
     <g id="text_1">
      <!-- 0 -->
      <g transform="translate(32.680937 139.327849)scale(0.1 -0.1)">
       <defs>
        <path id="DejaVuSans-30" d="M 2034 4250 
Q 1547 4250 1301 3770 
Q 1056 3291 1056 2328 
Q 1056 1369 1301 889 
Q 1547 409 2034 409 
Q 2525 409 2770 889 
Q 3016 1369 3016 2328 
Q 3016 3291 2770 3770 
Q 2525 4250 2034 4250 
z
M 2034 4750 
Q 2819 4750 3233 4129 
Q 3647 3509 3647 2328 
Q 3647 1150 3233 529 
Q 2819 -91 2034 -91 
Q 1250 -91 836 529 
Q 422 1150 422 2328 
Q 422 3509 836 4129 
Q 1250 4750 2034 4750 
z
" transform="scale(0.015625)"/>
       </defs>
       <use xlink:href="#DejaVuSans-30"/>
      </g>
     </g>
    </g>
    <g id="xtick_2">
     <g id="line2d_3">
      <path d="M 91.662187 124.729412 
L 91.662187 43.2 
" clip-path="url(#p0080c972e7)" style="fill: none; stroke: #b0b0b0; stroke-width: 0.8; stroke-linecap: square"/>
     </g>
     <g id="line2d_4">
      <g>
       <use xlink:href="#md1a11f4e99" x="91.662187" y="124.729412" style="stroke: #000000; stroke-width: 0.8"/>
      </g>
     </g>
     <g id="text_2">
      <!-- 5 -->
      <g transform="translate(88.480937 139.327849)scale(0.1 -0.1)">
       <defs>
        <path id="DejaVuSans-35" d="M 691 4666 
L 3169 4666 
L 3169 4134 
L 1269 4134 
L 1269 2991 
Q 1406 3038 1543 3061 
Q 1681 3084 1819 3084 
Q 2600 3084 3056 2656 
Q 3513 2228 3513 1497 
Q 3513 744 3044 326 
Q 2575 -91 1722 -91 
Q 1428 -91 1123 -41 
Q 819 9 494 109 
L 494 744 
Q 775 591 1075 516 
Q 1375 441 1709 441 
Q 2250 441 2565 725 
Q 2881 1009 2881 1497 
Q 2881 1984 2565 2268 
Q 2250 2553 1709 2553 
Q 1456 2553 1204 2497 
Q 953 2441 691 2322 
L 691 4666 
z
" transform="scale(0.015625)"/>
       </defs>
       <use xlink:href="#DejaVuSans-35"/>
      </g>
     </g>
    </g>
    <g id="xtick_3">
     <g id="line2d_5">
      <path d="M 147.462187 124.729412 
L 147.462187 43.2 
" clip-path="url(#p0080c972e7)" style="fill: none; stroke: #b0b0b0; stroke-width: 0.8; stroke-linecap: square"/>
     </g>
     <g id="line2d_6">
      <g>
       <use xlink:href="#md1a11f4e99" x="147.462187" y="124.729412" style="stroke: #000000; stroke-width: 0.8"/>
      </g>
     </g>
     <g id="text_3">
      <!-- 10 -->
      <g transform="translate(141.099687 139.327849)scale(0.1 -0.1)">
       <defs>
        <path id="DejaVuSans-31" d="M 794 531 
L 1825 531 
L 1825 4091 
L 703 3866 
L 703 4441 
L 1819 4666 
L 2450 4666 
L 2450 531 
L 3481 531 
L 3481 0 
L 794 0 
L 794 531 
z
" transform="scale(0.015625)"/>
       </defs>
       <use xlink:href="#DejaVuSans-31"/>
       <use xlink:href="#DejaVuSans-30" x="63.623047"/>
      </g>
     </g>
    </g>
    <g id="xtick_4">
     <g id="line2d_7">
      <path d="M 203.262187 124.729412 
L 203.262187 43.2 
" clip-path="url(#p0080c972e7)" style="fill: none; stroke: #b0b0b0; stroke-width: 0.8; stroke-linecap: square"/>
     </g>
     <g id="line2d_8">
      <g>
       <use xlink:href="#md1a11f4e99" x="203.262187" y="124.729412" style="stroke: #000000; stroke-width: 0.8"/>
      </g>
     </g>
     <g id="text_4">
      <!-- 15 -->
      <g transform="translate(196.899687 139.327849)scale(0.1 -0.1)">
       <use xlink:href="#DejaVuSans-31"/>
       <use xlink:href="#DejaVuSans-35" x="63.623047"/>
      </g>
     </g>
    </g>
    <g id="xtick_5">
     <g id="line2d_9">
      <path d="M 259.062187 124.729412 
L 259.062187 43.2 
" clip-path="url(#p0080c972e7)" style="fill: none; stroke: #b0b0b0; stroke-width: 0.8; stroke-linecap: square"/>
     </g>
     <g id="line2d_10">
      <g>
       <use xlink:href="#md1a11f4e99" x="259.062187" y="124.729412" style="stroke: #000000; stroke-width: 0.8"/>
      </g>
     </g>
     <g id="text_5">
      <!-- 20 -->
      <g transform="translate(252.699687 139.327849)scale(0.1 -0.1)">
       <defs>
        <path id="DejaVuSans-32" d="M 1228 531 
L 3431 531 
L 3431 0 
L 469 0 
L 469 531 
Q 828 903 1448 1529 
Q 2069 2156 2228 2338 
Q 2531 2678 2651 2914 
Q 2772 3150 2772 3378 
Q 2772 3750 2511 3984 
Q 2250 4219 1831 4219 
Q 1534 4219 1204 4116 
Q 875 4013 500 3803 
L 500 4441 
Q 881 4594 1212 4672 
Q 1544 4750 1819 4750 
Q 2544 4750 2975 4387 
Q 3406 4025 3406 3419 
Q 3406 3131 3298 2873 
Q 3191 2616 2906 2266 
Q 2828 2175 2409 1742 
Q 1991 1309 1228 531 
z
" transform="scale(0.015625)"/>
       </defs>
       <use xlink:href="#DejaVuSans-32"/>
       <use xlink:href="#DejaVuSans-30" x="63.623047"/>
      </g>
     </g>
    </g>
   </g>
   <g id="matplotlib.axis_2">
    <g id="ytick_1">
     <g id="line2d_11">
      <path d="M 35.862187 99.643439 
L 259.062187 99.643439 
" clip-path="url(#p0080c972e7)" style="fill: none; stroke: #b0b0b0; stroke-width: 0.8; stroke-linecap: square"/>
     </g>
     <g id="line2d_12">
      <defs>
       <path id="m225c4389dc" d="M 0 0 
L -3.5 0 
" style="stroke: #000000; stroke-width: 0.8"/>
      </defs>
      <g>
       <use xlink:href="#m225c4389dc" x="35.862187" y="99.643439" style="stroke: #000000; stroke-width: 0.8"/>
      </g>
     </g>
     <g id="text_6">
      <!-- 0 -->
      <g transform="translate(22.499687 103.442658)scale(0.1 -0.1)">
       <use xlink:href="#DejaVuSans-30"/>
      </g>
     </g>
    </g>
    <g id="ytick_2">
     <g id="line2d_13">
      <path d="M 35.862187 68.285973 
L 259.062187 68.285973 
" clip-path="url(#p0080c972e7)" style="fill: none; stroke: #b0b0b0; stroke-width: 0.8; stroke-linecap: square"/>
     </g>
     <g id="line2d_14">
      <g>
       <use xlink:href="#m225c4389dc" x="35.862187" y="68.285973" style="stroke: #000000; stroke-width: 0.8"/>
      </g>
     </g>
     <g id="text_7">
      <!-- 1 -->
      <g transform="translate(22.499687 72.085192)scale(0.1 -0.1)">
       <use xlink:href="#DejaVuSans-31"/>
      </g>
     </g>
    </g>
    <g id="text_8">
     <!-- voltage -->
     <g transform="translate(16.42 102.647518)rotate(-90)scale(0.1 -0.1)">
      <defs>
       <path id="DejaVuSans-76" d="M 191 3500 
L 800 3500 
L 1894 563 
L 2988 3500 
L 3597 3500 
L 2284 0 
L 1503 0 
L 191 3500 
z
" transform="scale(0.015625)"/>
       <path id="DejaVuSans-6f" d="M 1959 3097 
Q 1497 3097 1228 2736 
Q 959 2375 959 1747 
Q 959 1119 1226 758 
Q 1494 397 1959 397 
Q 2419 397 2687 759 
Q 2956 1122 2956 1747 
Q 2956 2369 2687 2733 
Q 2419 3097 1959 3097 
z
M 1959 3584 
Q 2709 3584 3137 3096 
Q 3566 2609 3566 1747 
Q 3566 888 3137 398 
Q 2709 -91 1959 -91 
Q 1206 -91 779 398 
Q 353 888 353 1747 
Q 353 2609 779 3096 
Q 1206 3584 1959 3584 
z
" transform="scale(0.015625)"/>
       <path id="DejaVuSans-6c" d="M 603 4863 
L 1178 4863 
L 1178 0 
L 603 0 
L 603 4863 
z
" transform="scale(0.015625)"/>
       <path id="DejaVuSans-74" d="M 1172 4494 
L 1172 3500 
L 2356 3500 
L 2356 3053 
L 1172 3053 
L 1172 1153 
Q 1172 725 1289 603 
Q 1406 481 1766 481 
L 2356 481 
L 2356 0 
L 1766 0 
Q 1100 0 847 248 
Q 594 497 594 1153 
L 594 3053 
L 172 3053 
L 172 3500 
L 594 3500 
L 594 4494 
L 1172 4494 
z
" transform="scale(0.015625)"/>
       <path id="DejaVuSans-61" d="M 2194 1759 
Q 1497 1759 1228 1600 
Q 959 1441 959 1056 
Q 959 750 1161 570 
Q 1363 391 1709 391 
Q 2188 391 2477 730 
Q 2766 1069 2766 1631 
L 2766 1759 
L 2194 1759 
z
M 3341 1997 
L 3341 0 
L 2766 0 
L 2766 531 
Q 2569 213 2275 61 
Q 1981 -91 1556 -91 
Q 1019 -91 701 211 
Q 384 513 384 1019 
Q 384 1609 779 1909 
Q 1175 2209 1959 2209 
L 2766 2209 
L 2766 2266 
Q 2766 2663 2505 2880 
Q 2244 3097 1772 3097 
Q 1472 3097 1187 3025 
Q 903 2953 641 2809 
L 641 3341 
Q 956 3463 1253 3523 
Q 1550 3584 1831 3584 
Q 2591 3584 2966 3190 
Q 3341 2797 3341 1997 
z
" transform="scale(0.015625)"/>
       <path id="DejaVuSans-67" d="M 2906 1791 
Q 2906 2416 2648 2759 
Q 2391 3103 1925 3103 
Q 1463 3103 1205 2759 
Q 947 2416 947 1791 
Q 947 1169 1205 825 
Q 1463 481 1925 481 
Q 2391 481 2648 825 
Q 2906 1169 2906 1791 
z
M 3481 434 
Q 3481 -459 3084 -895 
Q 2688 -1331 1869 -1331 
Q 1566 -1331 1297 -1286 
Q 1028 -1241 775 -1147 
L 775 -588 
Q 1028 -725 1275 -790 
Q 1522 -856 1778 -856 
Q 2344 -856 2625 -561 
Q 2906 -266 2906 331 
L 2906 616 
Q 2728 306 2450 153 
Q 2172 0 1784 0 
Q 1141 0 747 490 
Q 353 981 353 1791 
Q 353 2603 747 3093 
Q 1141 3584 1784 3584 
Q 2172 3584 2450 3431 
Q 2728 3278 2906 2969 
L 2906 3500 
L 3481 3500 
L 3481 434 
z
" transform="scale(0.015625)"/>
       <path id="DejaVuSans-65" d="M 3597 1894 
L 3597 1613 
L 953 1613 
Q 991 1019 1311 708 
Q 1631 397 2203 397 
Q 2534 397 2845 478 
Q 3156 559 3463 722 
L 3463 178 
Q 3153 47 2828 -22 
Q 2503 -91 2169 -91 
Q 1331 -91 842 396 
Q 353 884 353 1716 
Q 353 2575 817 3079 
Q 1281 3584 2069 3584 
Q 2775 3584 3186 3129 
Q 3597 2675 3597 1894 
z
M 3022 2063 
Q 3016 2534 2758 2815 
Q 2500 3097 2075 3097 
Q 1594 3097 1305 2825 
Q 1016 2553 972 2059 
L 3022 2063 
z
" transform="scale(0.015625)"/>
      </defs>
      <use xlink:href="#DejaVuSans-76"/>
      <use xlink:href="#DejaVuSans-6f" x="59.179688"/>
      <use xlink:href="#DejaVuSans-6c" x="120.361328"/>
      <use xlink:href="#DejaVuSans-74" x="148.144531"/>
      <use xlink:href="#DejaVuSans-61" x="187.353516"/>
      <use xlink:href="#DejaVuSans-67" x="248.632812"/>
      <use xlink:href="#DejaVuSans-65" x="312.109375"/>
     </g>
    </g>
   </g>
   <g id="line2d_15">
    <path d="M 35.862187 99.643439 
L 58.029609 99.604791 
L 58.247578 99.415677 
L 58.728459 98.330728 
L 60.472209 93.76421 
L 62.215959 88.677449 
L 64.177677 82.425718 
L 67.011271 72.575805 
L 69.408927 63.890448 
L 69.626896 63.485249 
L 73.114396 59.16252 
L 76.601896 56.000927 
L 78.890568 54.40253 
L 81.17924 53.100647 
L 84.448771 51.64789 
L 87.718302 50.564401 
L 91.859709 49.577453 
L 96.655021 48.810237 
L 100.578459 48.386583 
L 103.84799 48.207091 
L 105.155802 48.430121 
L 106.463615 48.896801 
L 107.553459 49.467052 
L 108.643302 50.197207 
L 110.605021 51.897472 
L 112.56674 54.065088 
L 119.54174 62.892042 
L 122.702287 66.23161 
L 125.862834 69.099984 
L 129.786271 72.050157 
L 133.709709 74.404437 
L 136.870256 75.931549 
L 140.030802 77.180923 
L 143.300334 78.228096 
L 147.975534 79.375413 
L 150.046237 79.754011 
L 152.879831 80.044211 
L 154.078659 80.063726 
L 156.040378 79.940707 
L 159.167109 79.306535 
L 160.474922 78.881537 
L 164.180391 77.296208 
L 169.629609 74.42697 
L 169.847578 74.535026 
L 170.501484 75.670115 
L 172.027266 78.840853 
L 173.771016 82.960136 
L 176.386641 89.998659 
L 180.528047 102.855305 
L 180.963984 104.122689 
L 181.181953 104.488931 
L 183.143672 106.221412 
L 185.105391 107.595629 
L 186.849141 108.568113 
L 188.810859 109.433785 
L 190.990547 110.166952 
L 193.388203 110.755735 
L 196.221797 111.234881 
L 210.825703 113.054829 
L 216.274922 114.060506 
L 217.800703 113.91465 
L 219.108516 113.55522 
L 220.198359 113.093809 
L 221.724141 112.207364 
L 223.576875 110.767967 
L 226.737422 107.549688 
L 229.68 104.648095 
L 231.968672 102.658872 
L 234.039375 101.062623 
L 237.199922 98.981967 
L 240.1425 97.398344 
L 243.738984 95.861656 
L 247.1175 94.742555 
L 252.457734 93.418823 
L 259.062187 92.161837 
L 259.062187 92.161837 
" clip-path="url(#p0080c972e7)" style="fill: none; stroke-dasharray: 5.55,2.4; stroke-dashoffset: 0; stroke: #1f77b4; stroke-width: 1.5"/>
   </g>
   <g id="line2d_16">
    <path d="M 35.862187 99.643439 
L 47.022187 99.643439 
L 58.247578 73.584412 
L 58.559009 73.512218 
L 69.626896 73.500353 
L 73.114396 72.173071 
L 76.601896 69.008494 
L 78.890568 66.172727 
L 81.17924 62.929109 
L 84.448771 58.979977 
L 87.718302 56.034664 
L 89.789006 54.568461 
L 91.859709 53.356957 
L 93.712443 52.716961 
L 96.001115 52.663513 
L 97.308927 52.943366 
L 98.834709 53.514537 
L 99.924552 54.065974 
L 101.777287 55.243996 
L 105.373771 57.817884 
L 107.553459 59.057027 
L 108.643302 59.591531 
L 110.605021 60.431471 
L 113.656584 61.476973 
L 119.54174 63.122025 
L 122.702287 64.27659 
L 125.862834 65.804158 
L 136.870256 72.301991 
L 140.030802 73.865083 
L 143.300334 75.046219 
L 147.528886 75.765796 
L 150.046237 75.773089 
L 154.078659 75.375749 
L 158.643984 74.743234 
L 159.167109 75.83992 
L 169.629609 98.371035 
L 169.847578 98.64409 
L 170.065547 98.694843 
L 173.771016 97.784354 
L 180.092109 95.886992 
L 181.835859 95.399324 
L 183.143672 95.360047 
L 184.451484 95.616096 
L 185.759297 96.139589 
L 186.849141 96.762687 
L 188.374922 97.895933 
L 190.118672 99.530241 
L 191.426484 100.971926 
L 193.388203 103.278509 
L 196.221797 106.035211 
L 199.055391 108.210602 
L 201.235078 109.587037 
L 204.068672 111.032153 
L 205.376484 111.379081 
L 206.684297 111.478453 
L 207.992109 111.357729 
L 209.299922 111.04143 
L 211.043672 110.353158 
L 212.351484 109.66227 
L 214.204219 108.464315 
L 216.274922 107.097678 
L 218.454609 105.96405 
L 220.634297 105.100751 
L 221.724141 104.757221 
L 223.576875 104.291356 
L 227.391328 103.713607 
L 231.968672 103.158643 
L 234.039375 102.756129 
L 237.199922 101.833893 
L 240.1425 100.653331 
L 251.040937 95.872617 
L 252.457734 95.383713 
L 255.618281 94.576538 
L 259.062187 94.200135 
L 259.062187 94.200135 
" clip-path="url(#p0080c972e7)" style="fill: none; stroke: #ff7f0e; stroke-width: 1.5; stroke-linecap: square"/>
   </g>
   <g id="line2d_17">
    <path d="M 35.862187 99.643439 
L 47.022187 73.512218 
L 81.17924 73.495413 
L 84.448771 73.025979 
L 87.718302 72.027212 
L 89.789006 71.183549 
L 93.712443 69.384423 
L 97.526896 68.057709 
L 100.578459 67.278745 
L 104.719865 66.510823 
L 108.643302 66.00424 
L 114.746427 65.497708 
L 122.702287 65.142899 
L 129.786271 65.04031 
L 133.709709 65.232056 
L 136.870256 65.581094 
L 143.300334 66.652535 
L 147.490772 67.440728 
L 147.975534 68.668298 
L 158.622187 95.03667 
L 158.949141 95.087215 
L 162.327656 95.413097 
L 170.501484 95.976539 
L 176.386641 96.222054 
L 183.143672 96.265232 
L 188.810859 96.043537 
L 193.388203 95.788923 
L 196.221797 96.03349 
L 199.055391 96.657231 
L 201.235078 97.345315 
L 206.248359 99.169685 
L 209.299922 99.94621 
L 212.351484 100.500055 
L 216.274922 100.978865 
L 221.070234 101.32732 
L 227.391328 101.570861 
L 243.738984 101.915123 
L 247.1175 101.740674 
L 252.457734 101.144542 
L 259.062187 100.272557 
L 259.062187 100.272557 
" clip-path="url(#p0080c972e7)" style="fill: none; stroke-dasharray: 1.5,2.475; stroke-dashoffset: 0; stroke: #2ca02c; stroke-width: 1.5"/>
   </g>
   <g id="patch_3">
    <path d="M 35.862187 124.729412 
L 35.862187 43.2 
" style="fill: none; stroke: #000000; stroke-width: 0.8; stroke-linejoin: miter; stroke-linecap: square"/>
   </g>
   <g id="patch_4">
    <path d="M 259.062187 124.729412 
L 259.062187 43.2 
" style="fill: none; stroke: #000000; stroke-width: 0.8; stroke-linejoin: miter; stroke-linecap: square"/>
   </g>
   <g id="patch_5">
    <path d="M 35.862187 124.729412 
L 259.062187 124.729412 
" style="fill: none; stroke: #000000; stroke-width: 0.8; stroke-linejoin: miter; stroke-linecap: square"/>
   </g>
   <g id="patch_6">
    <path d="M 35.862187 43.2 
L 259.062187 43.2 
" style="fill: none; stroke: #000000; stroke-width: 0.8; stroke-linejoin: miter; stroke-linecap: square"/>
   </g>
   <g id="text_9">
    <!-- CL = 5pF -->
    <g transform="translate(36.978187 121.593665)scale(0.1 -0.1)">
     <defs>
      <path id="DejaVuSans-43" d="M 4122 4306 
L 4122 3641 
Q 3803 3938 3442 4084 
Q 3081 4231 2675 4231 
Q 1875 4231 1450 3742 
Q 1025 3253 1025 2328 
Q 1025 1406 1450 917 
Q 1875 428 2675 428 
Q 3081 428 3442 575 
Q 3803 722 4122 1019 
L 4122 359 
Q 3791 134 3420 21 
Q 3050 -91 2638 -91 
Q 1578 -91 968 557 
Q 359 1206 359 2328 
Q 359 3453 968 4101 
Q 1578 4750 2638 4750 
Q 3056 4750 3426 4639 
Q 3797 4528 4122 4306 
z
" transform="scale(0.015625)"/>
      <path id="DejaVuSans-4c" d="M 628 4666 
L 1259 4666 
L 1259 531 
L 3531 531 
L 3531 0 
L 628 0 
L 628 4666 
z
" transform="scale(0.015625)"/>
      <path id="DejaVuSans-20" transform="scale(0.015625)"/>
      <path id="DejaVuSans-3d" d="M 678 2906 
L 4684 2906 
L 4684 2381 
L 678 2381 
L 678 2906 
z
M 678 1631 
L 4684 1631 
L 4684 1100 
L 678 1100 
L 678 1631 
z
" transform="scale(0.015625)"/>
      <path id="DejaVuSans-70" d="M 1159 525 
L 1159 -1331 
L 581 -1331 
L 581 3500 
L 1159 3500 
L 1159 2969 
Q 1341 3281 1617 3432 
Q 1894 3584 2278 3584 
Q 2916 3584 3314 3078 
Q 3713 2572 3713 1747 
Q 3713 922 3314 415 
Q 2916 -91 2278 -91 
Q 1894 -91 1617 61 
Q 1341 213 1159 525 
z
M 3116 1747 
Q 3116 2381 2855 2742 
Q 2594 3103 2138 3103 
Q 1681 3103 1420 2742 
Q 1159 2381 1159 1747 
Q 1159 1113 1420 752 
Q 1681 391 2138 391 
Q 2594 391 2855 752 
Q 3116 1113 3116 1747 
z
" transform="scale(0.015625)"/>
      <path id="DejaVuSans-46" d="M 628 4666 
L 3309 4666 
L 3309 4134 
L 1259 4134 
L 1259 2759 
L 3109 2759 
L 3109 2228 
L 1259 2228 
L 1259 0 
L 628 0 
L 628 4666 
z
" transform="scale(0.015625)"/>
     </defs>
     <use xlink:href="#DejaVuSans-43"/>
     <use xlink:href="#DejaVuSans-4c" x="69.824219"/>
     <use xlink:href="#DejaVuSans-20" x="125.537109"/>
     <use xlink:href="#DejaVuSans-3d" x="157.324219"/>
     <use xlink:href="#DejaVuSans-20" x="241.113281"/>
     <use xlink:href="#DejaVuSans-35" x="272.900391"/>
     <use xlink:href="#DejaVuSans-70" x="336.523438"/>
     <use xlink:href="#DejaVuSans-46" x="400"/>
    </g>
   </g>
  </g>
  <g id="axes_2">
   <g id="patch_7">
    <path d="M 35.862187 222.564706 
L 259.062187 222.564706 
L 259.062187 141.035294 
L 35.862187 141.035294 
z
" style="fill: #ffffff"/>
   </g>
   <g id="matplotlib.axis_3">
    <g id="xtick_6">
     <g id="line2d_18">
      <path d="M 35.862187 222.564706 
L 35.862187 141.035294 
" clip-path="url(#p41ad5ecffe)" style="fill: none; stroke: #b0b0b0; stroke-width: 0.8; stroke-linecap: square"/>
     </g>
     <g id="line2d_19">
      <g>
       <use xlink:href="#md1a11f4e99" x="35.862187" y="222.564706" style="stroke: #000000; stroke-width: 0.8"/>
      </g>
     </g>
     <g id="text_10">
      <!-- 0 -->
      <g transform="translate(32.680937 237.163143)scale(0.1 -0.1)">
       <use xlink:href="#DejaVuSans-30"/>
      </g>
     </g>
    </g>
    <g id="xtick_7">
     <g id="line2d_20">
      <path d="M 91.662187 222.564706 
L 91.662187 141.035294 
" clip-path="url(#p41ad5ecffe)" style="fill: none; stroke: #b0b0b0; stroke-width: 0.8; stroke-linecap: square"/>
     </g>
     <g id="line2d_21">
      <g>
       <use xlink:href="#md1a11f4e99" x="91.662187" y="222.564706" style="stroke: #000000; stroke-width: 0.8"/>
      </g>
     </g>
     <g id="text_11">
      <!-- 5 -->
      <g transform="translate(88.480937 237.163143)scale(0.1 -0.1)">
       <use xlink:href="#DejaVuSans-35"/>
      </g>
     </g>
    </g>
    <g id="xtick_8">
     <g id="line2d_22">
      <path d="M 147.462187 222.564706 
L 147.462187 141.035294 
" clip-path="url(#p41ad5ecffe)" style="fill: none; stroke: #b0b0b0; stroke-width: 0.8; stroke-linecap: square"/>
     </g>
     <g id="line2d_23">
      <g>
       <use xlink:href="#md1a11f4e99" x="147.462187" y="222.564706" style="stroke: #000000; stroke-width: 0.8"/>
      </g>
     </g>
     <g id="text_12">
      <!-- 10 -->
      <g transform="translate(141.099687 237.163143)scale(0.1 -0.1)">
       <use xlink:href="#DejaVuSans-31"/>
       <use xlink:href="#DejaVuSans-30" x="63.623047"/>
      </g>
     </g>
    </g>
    <g id="xtick_9">
     <g id="line2d_24">
      <path d="M 203.262187 222.564706 
L 203.262187 141.035294 
" clip-path="url(#p41ad5ecffe)" style="fill: none; stroke: #b0b0b0; stroke-width: 0.8; stroke-linecap: square"/>
     </g>
     <g id="line2d_25">
      <g>
       <use xlink:href="#md1a11f4e99" x="203.262187" y="222.564706" style="stroke: #000000; stroke-width: 0.8"/>
      </g>
     </g>
     <g id="text_13">
      <!-- 15 -->
      <g transform="translate(196.899687 237.163143)scale(0.1 -0.1)">
       <use xlink:href="#DejaVuSans-31"/>
       <use xlink:href="#DejaVuSans-35" x="63.623047"/>
      </g>
     </g>
    </g>
    <g id="xtick_10">
     <g id="line2d_26">
      <path d="M 259.062187 222.564706 
L 259.062187 141.035294 
" clip-path="url(#p41ad5ecffe)" style="fill: none; stroke: #b0b0b0; stroke-width: 0.8; stroke-linecap: square"/>
     </g>
     <g id="line2d_27">
      <g>
       <use xlink:href="#md1a11f4e99" x="259.062187" y="222.564706" style="stroke: #000000; stroke-width: 0.8"/>
      </g>
     </g>
     <g id="text_14">
      <!-- 20 -->
      <g transform="translate(252.699687 237.163143)scale(0.1 -0.1)">
       <use xlink:href="#DejaVuSans-32"/>
       <use xlink:href="#DejaVuSans-30" x="63.623047"/>
      </g>
     </g>
    </g>
   </g>
   <g id="matplotlib.axis_4">
    <g id="ytick_3">
     <g id="line2d_28">
      <path d="M 35.862187 197.478733 
L 259.062187 197.478733 
" clip-path="url(#p41ad5ecffe)" style="fill: none; stroke: #b0b0b0; stroke-width: 0.8; stroke-linecap: square"/>
     </g>
     <g id="line2d_29">
      <g>
       <use xlink:href="#m225c4389dc" x="35.862187" y="197.478733" style="stroke: #000000; stroke-width: 0.8"/>
      </g>
     </g>
     <g id="text_15">
      <!-- 0 -->
      <g transform="translate(22.499687 201.277952)scale(0.1 -0.1)">
       <use xlink:href="#DejaVuSans-30"/>
      </g>
     </g>
    </g>
    <g id="ytick_4">
     <g id="line2d_30">
      <path d="M 35.862187 166.121267 
L 259.062187 166.121267 
" clip-path="url(#p41ad5ecffe)" style="fill: none; stroke: #b0b0b0; stroke-width: 0.8; stroke-linecap: square"/>
     </g>
     <g id="line2d_31">
      <g>
       <use xlink:href="#m225c4389dc" x="35.862187" y="166.121267" style="stroke: #000000; stroke-width: 0.8"/>
      </g>
     </g>
     <g id="text_16">
      <!-- 1 -->
      <g transform="translate(22.499687 169.920486)scale(0.1 -0.1)">
       <use xlink:href="#DejaVuSans-31"/>
      </g>
     </g>
    </g>
    <g id="text_17">
     <!-- voltage -->
     <g transform="translate(16.42 200.482812)rotate(-90)scale(0.1 -0.1)">
      <use xlink:href="#DejaVuSans-76"/>
      <use xlink:href="#DejaVuSans-6f" x="59.179688"/>
      <use xlink:href="#DejaVuSans-6c" x="120.361328"/>
      <use xlink:href="#DejaVuSans-74" x="148.144531"/>
      <use xlink:href="#DejaVuSans-61" x="187.353516"/>
      <use xlink:href="#DejaVuSans-67" x="248.632812"/>
      <use xlink:href="#DejaVuSans-65" x="312.109375"/>
     </g>
    </g>
   </g>
   <g id="line2d_32">
    <path d="M 35.862187 197.478733 
L 47.022187 197.478733 
L 57.811641 197.478733 
L 58.029609 197.440362 
L 58.247578 197.253059 
L 58.394567 196.979696 
L 58.555879 196.687702 
L 58.696739 196.43188 
L 58.852965 195.98445 
L 59.030685 195.473544 
L 59.248654 194.952225 
L 59.466623 194.428586 
L 59.684591 193.902526 
L 59.90256 193.374057 
L 60.120529 192.843189 
L 60.338498 192.309935 
L 60.556466 191.774307 
L 60.774435 191.236316 
L 60.992404 190.695973 
L 61.210373 190.15329 
L 61.428341 189.608279 
L 61.64631 189.06095 
L 61.864279 188.511315 
L 62.082248 187.959385 
L 62.518185 186.848687 
L 62.954123 185.728943 
L 63.39006 184.600241 
L 63.825998 183.462667 
L 64.479904 181.739865 
L 65.13381 179.997583 
L 65.787716 178.236107 
L 66.441623 176.455715 
L 67.749435 172.838016 
L 69.057248 169.16093 
L 69.275216 168.632467 
L 69.493185 168.298034 
L 75.705295 165.261773 
L 81.917404 162.661789 
L 87.366623 160.657038 
L 92.815841 158.882696 
L 98.483029 157.249732 
L 104.150216 155.848882 
L 109.490451 155.400415 
L 114.830685 156.056497 
L 119.952951 157.111056 
L 125.075216 158.219104 
L 125.729123 158.363122 
L 126.16506 158.459371 
L 126.600998 158.555802 
L 126.818966 158.60408 
L 127.036935 158.652399 
L 127.254904 158.700755 
L 127.690841 158.797572 
L 128.344748 158.943055 
L 130.742404 159.478459 
L 133.14006 160.015609 
L 133.358029 160.06447 
L 133.575998 160.113331 
L 134.011935 160.211045 
L 134.665841 160.357582 
L 139.025216 161.331473 
L 143.384591 162.294696 
L 145.423389 162.739635 
L 147.462187 163.180263 
L 147.614766 163.209473 
L 153.118477 164.361126 
L 158.622187 165.38251 
L 164.016914 166.200926 
L 169.411641 166.840167 
L 169.629609 166.900304 
L 169.847578 167.126769 
L 170.065547 167.572463 
L 175.296797 181.031641 
L 180.528047 195.625217 
L 180.746016 196.228478 
L 180.963984 196.699842 
L 181.181953 196.958561 
L 181.399922 197.087701 
L 181.617891 197.201456 
L 182.053828 197.441001 
L 182.489766 197.677567 
L 183.143672 198.026935 
L 187.612031 200.245489 
L 192.080391 202.190441 
L 195.458906 203.496215 
L 198.837422 204.672762 
L 201.562031 205.53535 
L 204.286641 206.327535 
L 209.081953 207.56895 
L 213.877266 208.640924 
L 214.313203 208.730747 
L 214.967109 208.857938 
L 218.345625 209.241074 
L 221.724141 209.166391 
L 224.44875 208.776431 
L 227.173359 208.152979 
L 231.42375 207.102478 
L 235.674141 206.024772 
L 235.892109 205.9691 
L 236.110078 205.913404 
L 236.328047 205.857687 
L 236.546016 205.80195 
L 236.981953 205.690424 
L 237.635859 205.523033 
L 240.033516 204.909023 
L 242.431172 204.296394 
L 242.649141 204.240845 
L 242.867109 204.185327 
L 243.303047 204.074388 
L 243.956953 203.908246 
L 248.207344 202.838521 
L 252.457734 201.792571 
L 253.111641 201.634236 
L 255.97793 200.948927 
L 258.844219 200.283437 
L 258.931406 200.267534 
L 259.062187 200.230155 
" clip-path="url(#p41ad5ecffe)" style="fill: none; stroke-dasharray: 5.55,2.4; stroke-dashoffset: 0; stroke: #1f77b4; stroke-width: 1.5"/>
   </g>
   <g id="line2d_33">
    <path d="M 35.862187 197.478733 
L 47.022187 197.478733 
L 57.811641 172.21515 
L 58.029609 171.743052 
L 58.247578 171.419457 
L 58.394567 171.347512 
L 58.555879 171.347512 
L 58.696739 171.347512 
L 58.852965 171.347512 
L 59.030685 171.347512 
L 59.248654 171.347512 
L 59.466623 171.347512 
L 59.684591 171.347512 
L 59.90256 171.347512 
L 60.120529 171.347512 
L 60.338498 171.347512 
L 60.556466 171.347512 
L 60.774435 171.347512 
L 60.992404 171.347512 
L 61.210373 171.347512 
L 61.428341 171.347512 
L 61.64631 171.347512 
L 61.864279 171.347512 
L 62.082248 171.347512 
L 62.518185 171.347512 
L 62.954123 171.347512 
L 63.39006 171.347512 
L 63.825998 171.347512 
L 64.479904 171.347512 
L 65.13381 171.347512 
L 65.787716 171.347512 
L 66.441623 171.347512 
L 67.749435 171.347516 
L 69.057248 171.347486 
L 69.275216 171.347232 
L 69.493185 171.346073 
L 75.705295 170.328717 
L 81.917404 167.616765 
L 87.366623 165.03992 
L 92.815841 162.787213 
L 98.483029 161.449037 
L 104.150216 161.287382 
L 109.490451 161.439553 
L 114.830685 161.574674 
L 119.952951 161.715903 
L 125.075216 161.950107 
L 125.729123 161.990575 
L 126.16506 162.01903 
L 126.600998 162.048639 
L 126.818966 162.063868 
L 127.036935 162.079378 
L 127.254904 162.09516 
L 127.690841 162.127543 
L 128.344748 162.178108 
L 130.742404 162.382792 
L 133.14006 162.614965 
L 133.358029 162.637312 
L 133.575998 162.65986 
L 134.011935 162.705525 
L 134.665841 162.775438 
L 139.025216 163.278676 
L 143.384591 163.812425 
L 145.423389 164.05834 
L 147.462187 164.295773 
L 147.614766 164.310598 
L 153.118477 164.893218 
L 158.622187 165.393855 
L 164.016914 178.449785 
L 169.411641 191.443605 
L 169.629609 191.929154 
L 169.847578 192.248682 
L 170.065547 192.350879 
L 175.296797 192.63159 
L 180.528047 192.846449 
L 180.746016 192.854009 
L 180.963984 192.861912 
L 181.181953 192.870998 
L 181.399922 192.882092 
L 181.617891 192.895534 
L 182.053828 192.929454 
L 182.489766 192.972633 
L 183.143672 193.054557 
L 187.612031 194.142649 
L 192.080391 196.088803 
L 195.458906 197.793089 
L 198.837422 199.356574 
L 201.562031 200.524406 
L 204.286641 201.591121 
L 209.081953 202.781215 
L 213.877266 203.064145 
L 214.313203 203.048455 
L 214.967109 203.017853 
L 218.345625 202.857805 
L 221.724141 202.701046 
L 224.44875 202.5778 
L 227.173359 202.457298 
L 231.42375 202.254236 
L 235.674141 201.990753 
L 235.892109 201.97483 
L 236.110078 201.958636 
L 236.328047 201.942166 
L 236.546016 201.925415 
L 236.981953 201.891058 
L 237.635859 201.837391 
L 240.033516 201.620063 
L 242.431172 201.373647 
L 242.649141 201.349942 
L 242.867109 201.326033 
L 243.303047 201.27761 
L 243.956953 201.203508 
L 248.207344 200.683315 
L 252.457734 200.117684 
L 253.111641 200.029445 
L 255.97793 199.646606 
L 258.844219 199.282834 
L 258.931406 199.275149 
L 259.062187 199.253659 
" clip-path="url(#p41ad5ecffe)" style="fill: none; stroke: #ff7f0e; stroke-width: 1.5; stroke-linecap: square"/>
   </g>
   <g id="line2d_34">
    <path d="M 35.862187 197.478733 
L 47.022187 171.347512 
L 57.811641 171.347512 
L 58.029609 171.347512 
L 58.247578 171.347512 
L 58.394567 171.347512 
L 58.555879 171.347512 
L 58.696739 171.347512 
L 58.852965 171.347512 
L 59.030685 171.347512 
L 59.248654 171.347512 
L 59.466623 171.347512 
L 59.684591 171.347512 
L 59.90256 171.347512 
L 60.120529 171.347512 
L 60.338498 171.347512 
L 60.556466 171.347512 
L 60.774435 171.347512 
L 60.992404 171.347512 
L 61.210373 171.347512 
L 61.428341 171.347512 
L 61.64631 171.347512 
L 61.864279 171.347512 
L 62.082248 171.347512 
L 62.518185 171.347512 
L 62.954123 171.347512 
L 63.39006 171.347512 
L 63.825998 171.347512 
L 64.479904 171.347512 
L 65.13381 171.347512 
L 65.787716 171.347512 
L 66.441623 171.347512 
L 67.749435 171.347512 
L 69.057248 171.347512 
L 69.275216 171.347512 
L 69.493185 171.347512 
L 75.705295 171.349527 
L 81.917404 171.330261 
L 87.366623 170.954626 
L 92.815841 170.147809 
L 98.483029 169.252332 
L 104.150216 168.46364 
L 109.490451 167.806689 
L 114.830685 167.22382 
L 119.952951 166.72658 
L 125.075216 166.283254 
L 125.729123 166.230244 
L 126.16506 166.195364 
L 126.600998 166.160872 
L 126.818966 166.143776 
L 127.036935 166.126784 
L 127.254904 166.109899 
L 127.690841 166.076455 
L 128.344748 166.027127 
L 130.742404 165.855727 
L 133.14006 165.700977 
L 133.358029 165.687812 
L 133.575998 165.674803 
L 134.011935 165.649261 
L 134.665841 165.61216 
L 139.025216 165.403746 
L 143.384591 165.258435 
L 145.423389 165.209353 
L 147.462187 165.170971 
L 147.614766 165.526135 
L 153.118477 178.358009 
L 158.622187 191.247072 
L 164.016914 191.292182 
L 169.411641 191.370149 
L 169.629609 191.373868 
L 169.847578 191.377626 
L 170.065547 191.381422 
L 175.296797 191.483092 
L 180.528047 191.599692 
L 180.746016 191.604755 
L 180.963984 191.609828 
L 181.181953 191.61491 
L 181.399922 191.620004 
L 181.617891 191.625108 
L 182.053828 191.63534 
L 182.489766 191.645602 
L 183.143672 191.66104 
L 187.612031 191.7669 
L 192.080391 191.870847 
L 195.458906 192.042187 
L 198.837422 192.394556 
L 201.562031 192.801896 
L 204.286641 193.299579 
L 209.081953 194.146626 
L 213.877266 194.903456 
L 214.313203 194.968054 
L 214.967109 195.063685 
L 218.345625 195.534241 
L 221.724141 195.967191 
L 224.44875 196.29062 
L 227.173359 196.592427 
L 231.42375 197.022954 
L 235.674141 197.408302 
L 235.892109 197.426926 
L 236.110078 197.445442 
L 236.328047 197.463852 
L 236.546016 197.482157 
L 236.981953 197.518448 
L 237.635859 197.572074 
L 240.033516 197.759564 
L 242.431172 197.930804 
L 242.649141 197.945485 
L 242.867109 197.960012 
L 243.303047 197.988595 
L 243.956953 198.030271 
L 248.207344 198.263511 
L 252.457734 198.429607 
L 253.111641 198.449616 
L 255.97793 198.521727 
L 258.844219 198.570267 
L 258.931406 198.571084 
L 259.062187 198.573352 
" clip-path="url(#p41ad5ecffe)" style="fill: none; stroke-dasharray: 1.5,2.475; stroke-dashoffset: 0; stroke: #2ca02c; stroke-width: 1.5"/>
   </g>
   <g id="patch_8">
    <path d="M 35.862187 222.564706 
L 35.862187 141.035294 
" style="fill: none; stroke: #000000; stroke-width: 0.8; stroke-linejoin: miter; stroke-linecap: square"/>
   </g>
   <g id="patch_9">
    <path d="M 259.062187 222.564706 
L 259.062187 141.035294 
" style="fill: none; stroke: #000000; stroke-width: 0.8; stroke-linejoin: miter; stroke-linecap: square"/>
   </g>
   <g id="patch_10">
    <path d="M 35.862187 222.564706 
L 259.062187 222.564706 
" style="fill: none; stroke: #000000; stroke-width: 0.8; stroke-linejoin: miter; stroke-linecap: square"/>
   </g>
   <g id="patch_11">
    <path d="M 35.862187 141.035294 
L 259.062187 141.035294 
" style="fill: none; stroke: #000000; stroke-width: 0.8; stroke-linejoin: miter; stroke-linecap: square"/>
   </g>
   <g id="text_18">
    <!-- CL = 20pF -->
    <g transform="translate(36.978187 219.428959)scale(0.1 -0.1)">
     <use xlink:href="#DejaVuSans-43"/>
     <use xlink:href="#DejaVuSans-4c" x="69.824219"/>
     <use xlink:href="#DejaVuSans-20" x="125.537109"/>
     <use xlink:href="#DejaVuSans-3d" x="157.324219"/>
     <use xlink:href="#DejaVuSans-20" x="241.113281"/>
     <use xlink:href="#DejaVuSans-32" x="272.900391"/>
     <use xlink:href="#DejaVuSans-30" x="336.523438"/>
     <use xlink:href="#DejaVuSans-70" x="400.146484"/>
     <use xlink:href="#DejaVuSans-46" x="463.623047"/>
    </g>
   </g>
  </g>
  <g id="axes_3">
   <g id="patch_12">
    <path d="M 35.862187 320.4 
L 259.062187 320.4 
L 259.062187 238.870588 
L 35.862187 238.870588 
z
" style="fill: #ffffff"/>
   </g>
   <g id="matplotlib.axis_5">
    <g id="xtick_11">
     <g id="line2d_35">
      <path d="M 35.862187 320.4 
L 35.862187 238.870588 
" clip-path="url(#p66f785749d)" style="fill: none; stroke: #b0b0b0; stroke-width: 0.8; stroke-linecap: square"/>
     </g>
     <g id="line2d_36">
      <g>
       <use xlink:href="#md1a11f4e99" x="35.862187" y="320.4" style="stroke: #000000; stroke-width: 0.8"/>
      </g>
     </g>
     <g id="text_19">
      <!-- 0 -->
      <g transform="translate(32.680937 334.998437)scale(0.1 -0.1)">
       <use xlink:href="#DejaVuSans-30"/>
      </g>
     </g>
    </g>
    <g id="xtick_12">
     <g id="line2d_37">
      <path d="M 91.662187 320.4 
L 91.662187 238.870588 
" clip-path="url(#p66f785749d)" style="fill: none; stroke: #b0b0b0; stroke-width: 0.8; stroke-linecap: square"/>
     </g>
     <g id="line2d_38">
      <g>
       <use xlink:href="#md1a11f4e99" x="91.662187" y="320.4" style="stroke: #000000; stroke-width: 0.8"/>
      </g>
     </g>
     <g id="text_20">
      <!-- 5 -->
      <g transform="translate(88.480937 334.998437)scale(0.1 -0.1)">
       <use xlink:href="#DejaVuSans-35"/>
      </g>
     </g>
    </g>
    <g id="xtick_13">
     <g id="line2d_39">
      <path d="M 147.462187 320.4 
L 147.462187 238.870588 
" clip-path="url(#p66f785749d)" style="fill: none; stroke: #b0b0b0; stroke-width: 0.8; stroke-linecap: square"/>
     </g>
     <g id="line2d_40">
      <g>
       <use xlink:href="#md1a11f4e99" x="147.462187" y="320.4" style="stroke: #000000; stroke-width: 0.8"/>
      </g>
     </g>
     <g id="text_21">
      <!-- 10 -->
      <g transform="translate(141.099687 334.998437)scale(0.1 -0.1)">
       <use xlink:href="#DejaVuSans-31"/>
       <use xlink:href="#DejaVuSans-30" x="63.623047"/>
      </g>
     </g>
    </g>
    <g id="xtick_14">
     <g id="line2d_41">
      <path d="M 203.262187 320.4 
L 203.262187 238.870588 
" clip-path="url(#p66f785749d)" style="fill: none; stroke: #b0b0b0; stroke-width: 0.8; stroke-linecap: square"/>
     </g>
     <g id="line2d_42">
      <g>
       <use xlink:href="#md1a11f4e99" x="203.262187" y="320.4" style="stroke: #000000; stroke-width: 0.8"/>
      </g>
     </g>
     <g id="text_22">
      <!-- 15 -->
      <g transform="translate(196.899687 334.998437)scale(0.1 -0.1)">
       <use xlink:href="#DejaVuSans-31"/>
       <use xlink:href="#DejaVuSans-35" x="63.623047"/>
      </g>
     </g>
    </g>
    <g id="xtick_15">
     <g id="line2d_43">
      <path d="M 259.062187 320.4 
L 259.062187 238.870588 
" clip-path="url(#p66f785749d)" style="fill: none; stroke: #b0b0b0; stroke-width: 0.8; stroke-linecap: square"/>
     </g>
     <g id="line2d_44">
      <g>
       <use xlink:href="#md1a11f4e99" x="259.062187" y="320.4" style="stroke: #000000; stroke-width: 0.8"/>
      </g>
     </g>
     <g id="text_23">
      <!-- 20 -->
      <g transform="translate(252.699687 334.998437)scale(0.1 -0.1)">
       <use xlink:href="#DejaVuSans-32"/>
       <use xlink:href="#DejaVuSans-30" x="63.623047"/>
      </g>
     </g>
    </g>
    <g id="text_24">
     <!-- time (scaled by rise time) -->
     <g transform="translate(83.295 348.676562)scale(0.1 -0.1)">
      <defs>
       <path id="DejaVuSans-69" d="M 603 3500 
L 1178 3500 
L 1178 0 
L 603 0 
L 603 3500 
z
M 603 4863 
L 1178 4863 
L 1178 4134 
L 603 4134 
L 603 4863 
z
" transform="scale(0.015625)"/>
       <path id="DejaVuSans-6d" d="M 3328 2828 
Q 3544 3216 3844 3400 
Q 4144 3584 4550 3584 
Q 5097 3584 5394 3201 
Q 5691 2819 5691 2113 
L 5691 0 
L 5113 0 
L 5113 2094 
Q 5113 2597 4934 2840 
Q 4756 3084 4391 3084 
Q 3944 3084 3684 2787 
Q 3425 2491 3425 1978 
L 3425 0 
L 2847 0 
L 2847 2094 
Q 2847 2600 2669 2842 
Q 2491 3084 2119 3084 
Q 1678 3084 1418 2786 
Q 1159 2488 1159 1978 
L 1159 0 
L 581 0 
L 581 3500 
L 1159 3500 
L 1159 2956 
Q 1356 3278 1631 3431 
Q 1906 3584 2284 3584 
Q 2666 3584 2933 3390 
Q 3200 3197 3328 2828 
z
" transform="scale(0.015625)"/>
       <path id="DejaVuSans-28" d="M 1984 4856 
Q 1566 4138 1362 3434 
Q 1159 2731 1159 2009 
Q 1159 1288 1364 580 
Q 1569 -128 1984 -844 
L 1484 -844 
Q 1016 -109 783 600 
Q 550 1309 550 2009 
Q 550 2706 781 3412 
Q 1013 4119 1484 4856 
L 1984 4856 
z
" transform="scale(0.015625)"/>
       <path id="DejaVuSans-73" d="M 2834 3397 
L 2834 2853 
Q 2591 2978 2328 3040 
Q 2066 3103 1784 3103 
Q 1356 3103 1142 2972 
Q 928 2841 928 2578 
Q 928 2378 1081 2264 
Q 1234 2150 1697 2047 
L 1894 2003 
Q 2506 1872 2764 1633 
Q 3022 1394 3022 966 
Q 3022 478 2636 193 
Q 2250 -91 1575 -91 
Q 1294 -91 989 -36 
Q 684 19 347 128 
L 347 722 
Q 666 556 975 473 
Q 1284 391 1588 391 
Q 1994 391 2212 530 
Q 2431 669 2431 922 
Q 2431 1156 2273 1281 
Q 2116 1406 1581 1522 
L 1381 1569 
Q 847 1681 609 1914 
Q 372 2147 372 2553 
Q 372 3047 722 3315 
Q 1072 3584 1716 3584 
Q 2034 3584 2315 3537 
Q 2597 3491 2834 3397 
z
" transform="scale(0.015625)"/>
       <path id="DejaVuSans-63" d="M 3122 3366 
L 3122 2828 
Q 2878 2963 2633 3030 
Q 2388 3097 2138 3097 
Q 1578 3097 1268 2742 
Q 959 2388 959 1747 
Q 959 1106 1268 751 
Q 1578 397 2138 397 
Q 2388 397 2633 464 
Q 2878 531 3122 666 
L 3122 134 
Q 2881 22 2623 -34 
Q 2366 -91 2075 -91 
Q 1284 -91 818 406 
Q 353 903 353 1747 
Q 353 2603 823 3093 
Q 1294 3584 2113 3584 
Q 2378 3584 2631 3529 
Q 2884 3475 3122 3366 
z
" transform="scale(0.015625)"/>
       <path id="DejaVuSans-64" d="M 2906 2969 
L 2906 4863 
L 3481 4863 
L 3481 0 
L 2906 0 
L 2906 525 
Q 2725 213 2448 61 
Q 2172 -91 1784 -91 
Q 1150 -91 751 415 
Q 353 922 353 1747 
Q 353 2572 751 3078 
Q 1150 3584 1784 3584 
Q 2172 3584 2448 3432 
Q 2725 3281 2906 2969 
z
M 947 1747 
Q 947 1113 1208 752 
Q 1469 391 1925 391 
Q 2381 391 2643 752 
Q 2906 1113 2906 1747 
Q 2906 2381 2643 2742 
Q 2381 3103 1925 3103 
Q 1469 3103 1208 2742 
Q 947 2381 947 1747 
z
" transform="scale(0.015625)"/>
       <path id="DejaVuSans-62" d="M 3116 1747 
Q 3116 2381 2855 2742 
Q 2594 3103 2138 3103 
Q 1681 3103 1420 2742 
Q 1159 2381 1159 1747 
Q 1159 1113 1420 752 
Q 1681 391 2138 391 
Q 2594 391 2855 752 
Q 3116 1113 3116 1747 
z
M 1159 2969 
Q 1341 3281 1617 3432 
Q 1894 3584 2278 3584 
Q 2916 3584 3314 3078 
Q 3713 2572 3713 1747 
Q 3713 922 3314 415 
Q 2916 -91 2278 -91 
Q 1894 -91 1617 61 
Q 1341 213 1159 525 
L 1159 0 
L 581 0 
L 581 4863 
L 1159 4863 
L 1159 2969 
z
" transform="scale(0.015625)"/>
       <path id="DejaVuSans-79" d="M 2059 -325 
Q 1816 -950 1584 -1140 
Q 1353 -1331 966 -1331 
L 506 -1331 
L 506 -850 
L 844 -850 
Q 1081 -850 1212 -737 
Q 1344 -625 1503 -206 
L 1606 56 
L 191 3500 
L 800 3500 
L 1894 763 
L 2988 3500 
L 3597 3500 
L 2059 -325 
z
" transform="scale(0.015625)"/>
       <path id="DejaVuSans-72" d="M 2631 2963 
Q 2534 3019 2420 3045 
Q 2306 3072 2169 3072 
Q 1681 3072 1420 2755 
Q 1159 2438 1159 1844 
L 1159 0 
L 581 0 
L 581 3500 
L 1159 3500 
L 1159 2956 
Q 1341 3275 1631 3429 
Q 1922 3584 2338 3584 
Q 2397 3584 2469 3576 
Q 2541 3569 2628 3553 
L 2631 2963 
z
" transform="scale(0.015625)"/>
       <path id="DejaVuSans-29" d="M 513 4856 
L 1013 4856 
Q 1481 4119 1714 3412 
Q 1947 2706 1947 2009 
Q 1947 1309 1714 600 
Q 1481 -109 1013 -844 
L 513 -844 
Q 928 -128 1133 580 
Q 1338 1288 1338 2009 
Q 1338 2731 1133 3434 
Q 928 4138 513 4856 
z
" transform="scale(0.015625)"/>
      </defs>
      <use xlink:href="#DejaVuSans-74"/>
      <use xlink:href="#DejaVuSans-69" x="39.208984"/>
      <use xlink:href="#DejaVuSans-6d" x="66.992188"/>
      <use xlink:href="#DejaVuSans-65" x="164.404297"/>
      <use xlink:href="#DejaVuSans-20" x="225.927734"/>
      <use xlink:href="#DejaVuSans-28" x="257.714844"/>
      <use xlink:href="#DejaVuSans-73" x="296.728516"/>
      <use xlink:href="#DejaVuSans-63" x="348.828125"/>
      <use xlink:href="#DejaVuSans-61" x="403.808594"/>
      <use xlink:href="#DejaVuSans-6c" x="465.087891"/>
      <use xlink:href="#DejaVuSans-65" x="492.871094"/>
      <use xlink:href="#DejaVuSans-64" x="554.394531"/>
      <use xlink:href="#DejaVuSans-20" x="617.871094"/>
      <use xlink:href="#DejaVuSans-62" x="649.658203"/>
      <use xlink:href="#DejaVuSans-79" x="713.134766"/>
      <use xlink:href="#DejaVuSans-20" x="772.314453"/>
      <use xlink:href="#DejaVuSans-72" x="804.101562"/>
      <use xlink:href="#DejaVuSans-69" x="845.214844"/>
      <use xlink:href="#DejaVuSans-73" x="872.998047"/>
      <use xlink:href="#DejaVuSans-65" x="925.097656"/>
      <use xlink:href="#DejaVuSans-20" x="986.621094"/>
      <use xlink:href="#DejaVuSans-74" x="1018.408203"/>
      <use xlink:href="#DejaVuSans-69" x="1057.617188"/>
      <use xlink:href="#DejaVuSans-6d" x="1085.400391"/>
      <use xlink:href="#DejaVuSans-65" x="1182.8125"/>
      <use xlink:href="#DejaVuSans-29" x="1244.335938"/>
     </g>
    </g>
   </g>
   <g id="matplotlib.axis_6">
    <g id="ytick_5">
     <g id="line2d_45">
      <path d="M 35.862187 295.314027 
L 259.062187 295.314027 
" clip-path="url(#p66f785749d)" style="fill: none; stroke: #b0b0b0; stroke-width: 0.8; stroke-linecap: square"/>
     </g>
     <g id="line2d_46">
      <g>
       <use xlink:href="#m225c4389dc" x="35.862187" y="295.314027" style="stroke: #000000; stroke-width: 0.8"/>
      </g>
     </g>
     <g id="text_25">
      <!-- 0 -->
      <g transform="translate(22.499687 299.113246)scale(0.1 -0.1)">
       <use xlink:href="#DejaVuSans-30"/>
      </g>
     </g>
    </g>
    <g id="ytick_6">
     <g id="line2d_47">
      <path d="M 35.862187 263.956561 
L 259.062187 263.956561 
" clip-path="url(#p66f785749d)" style="fill: none; stroke: #b0b0b0; stroke-width: 0.8; stroke-linecap: square"/>
     </g>
     <g id="line2d_48">
      <g>
       <use xlink:href="#m225c4389dc" x="35.862187" y="263.956561" style="stroke: #000000; stroke-width: 0.8"/>
      </g>
     </g>
     <g id="text_26">
      <!-- 1 -->
      <g transform="translate(22.499687 267.75578)scale(0.1 -0.1)">
       <use xlink:href="#DejaVuSans-31"/>
      </g>
     </g>
    </g>
    <g id="text_27">
     <!-- voltage -->
     <g transform="translate(16.42 298.318107)rotate(-90)scale(0.1 -0.1)">
      <use xlink:href="#DejaVuSans-76"/>
      <use xlink:href="#DejaVuSans-6f" x="59.179688"/>
      <use xlink:href="#DejaVuSans-6c" x="120.361328"/>
      <use xlink:href="#DejaVuSans-74" x="148.144531"/>
      <use xlink:href="#DejaVuSans-61" x="187.353516"/>
      <use xlink:href="#DejaVuSans-67" x="248.632812"/>
      <use xlink:href="#DejaVuSans-65" x="312.109375"/>
     </g>
    </g>
   </g>
   <g id="line2d_49">
    <path d="M 35.862187 295.314027 
L 47.022187 295.314027 
L 57.811641 295.314027 
L 58.029609 295.27573 
L 58.247578 295.088913 
L 58.394337 294.816926 
L 58.696127 294.27441 
L 58.852238 293.830619 
L 59.029441 293.326483 
L 59.24741 292.813902 
L 59.465379 292.300849 
L 59.683347 291.7873 
L 59.901316 291.273256 
L 60.119285 290.758717 
L 60.337254 290.243685 
L 60.555222 289.728159 
L 60.773191 289.212139 
L 61.209129 288.178623 
L 61.645066 287.14314 
L 62.081004 286.105693 
L 62.516941 285.066288 
L 62.952879 284.024928 
L 63.388816 282.981616 
L 64.042722 281.412997 
L 64.696629 279.840008 
L 65.350535 278.262663 
L 66.004441 276.680976 
L 67.530222 272.972293 
L 69.056004 269.252976 
L 69.273972 268.810172 
L 69.491941 268.561786 
L 77.447801 267.626679 
L 85.40366 266.770772 
L 92.705613 266.007358 
L 100.007566 265.268515 
L 110.797019 264.457394 
L 121.586472 264.249348 
L 134.52433 264.119355 
L 147.462187 264.047277 
L 153.042188 264.031916 
L 158.622187 264.022155 
L 164.016914 264.014868 
L 169.411641 264.008911 
L 169.629609 264.046081 
L 169.847578 264.249471 
L 170.065547 264.671895 
L 175.296797 277.074596 
L 180.528047 289.757662 
L 180.746016 290.263953 
L 180.963984 290.63727 
L 181.181953 290.799308 
L 187.394062 291.496102 
L 193.606172 292.172756 
L 199.273359 292.774308 
L 204.940547 293.360964 
L 210.171797 293.889961 
L 215.403047 294.4025 
L 220.743281 294.78096 
L 226.083516 294.949207 
L 239.488594 295.115469 
L 252.893672 295.216367 
L 253.111641 295.217508 
L 255.945234 295.230942 
L 258.778828 295.241842 
L 258.931406 295.244109 
L 259.062187 295.244329 
" clip-path="url(#p66f785749d)" style="fill: none; stroke-dasharray: 5.55,2.4; stroke-dashoffset: 0; stroke: #1f77b4; stroke-width: 1.5"/>
   </g>
   <g id="line2d_50">
    <path d="M 35.862187 295.314027 
L 47.022187 295.314027 
L 57.811641 270.050444 
L 58.029609 269.578346 
L 58.247578 269.254684 
L 58.394337 269.182806 
L 58.696127 269.182806 
L 58.852238 269.182806 
L 59.029441 269.182806 
L 59.24741 269.182806 
L 59.465379 269.182806 
L 59.683347 269.182806 
L 59.901316 269.182806 
L 60.119285 269.182806 
L 60.337254 269.182806 
L 60.555222 269.182806 
L 60.773191 269.182806 
L 61.209129 269.182806 
L 61.645066 269.182806 
L 62.081004 269.182806 
L 62.516941 269.182806 
L 62.952879 269.182806 
L 63.388816 269.182806 
L 64.042722 269.182806 
L 64.696629 269.182806 
L 65.350535 269.182806 
L 66.004441 269.182806 
L 67.530222 269.182806 
L 69.056004 269.1828 
L 69.273972 269.18275 
L 69.491941 269.18252 
L 77.447801 268.833309 
L 85.40366 267.986881 
L 92.705613 267.192297 
L 100.007566 266.648106 
L 110.797019 266.326646 
L 121.586472 266.055877 
L 134.52433 265.778642 
L 147.462187 265.564619 
L 153.042188 265.483589 
L 158.622187 265.406989 
L 164.016914 277.968778 
L 169.411641 290.534372 
L 169.629609 291.003043 
L 169.847578 291.306054 
L 170.065547 291.393817 
L 175.296797 291.333871 
L 180.528047 291.276449 
L 180.746016 291.274134 
L 180.963984 291.271916 
L 181.181953 291.269963 
L 187.394062 291.423174 
L 193.606172 291.958505 
L 199.273359 292.542028 
L 204.940547 293.100112 
L 210.171797 293.458073 
L 215.403047 293.623871 
L 220.743281 293.726229 
L 226.083516 293.827105 
L 239.488594 294.059697 
L 252.893672 294.232407 
L 253.111641 294.234737 
L 255.945234 294.264097 
L 258.778828 294.2921 
L 258.931406 294.293156 
L 259.062187 294.294844 
" clip-path="url(#p66f785749d)" style="fill: none; stroke: #ff7f0e; stroke-width: 1.5; stroke-linecap: square"/>
   </g>
   <g id="line2d_51">
    <path d="M 35.862187 295.314027 
L 47.022187 269.182806 
L 57.811641 269.182806 
L 58.029609 269.182806 
L 58.247578 269.182806 
L 58.394337 269.182806 
L 58.696127 269.182806 
L 58.852238 269.182806 
L 59.029441 269.182806 
L 59.24741 269.182806 
L 59.465379 269.182806 
L 59.683347 269.182806 
L 59.901316 269.182806 
L 60.119285 269.182806 
L 60.337254 269.182806 
L 60.555222 269.182806 
L 60.773191 269.182806 
L 61.209129 269.182806 
L 61.645066 269.182806 
L 62.081004 269.182806 
L 62.516941 269.182806 
L 62.952879 269.182806 
L 63.388816 269.182806 
L 64.042722 269.182806 
L 64.696629 269.182806 
L 65.350535 269.182806 
L 66.004441 269.182806 
L 67.530222 269.182806 
L 69.056004 269.182806 
L 69.273972 269.182806 
L 69.491941 269.182806 
L 77.447801 269.185841 
L 85.40366 269.141121 
L 92.705613 268.93115 
L 100.007566 268.6569 
L 110.797019 268.270672 
L 121.586472 267.902673 
L 134.52433 267.485785 
L 147.462187 267.105384 
L 153.042188 280.019232 
L 158.622187 292.940059 
L 164.016914 292.806502 
L 169.411641 292.679015 
L 169.629609 292.673989 
L 169.847578 292.668972 
L 170.065547 292.663964 
L 175.296797 292.546619 
L 180.528047 292.434558 
L 180.746016 292.430001 
L 180.963984 292.425452 
L 181.181953 292.420912 
L 187.394062 292.294676 
L 193.606172 292.180113 
L 199.273359 292.162674 
L 204.940547 292.252986 
L 210.171797 292.362207 
L 215.403047 292.470826 
L 220.743281 292.581013 
L 226.083516 292.690427 
L 239.488594 292.961328 
L 252.893672 293.219027 
L 253.111641 293.223017 
L 255.945234 293.274269 
L 258.778828 293.32438 
L 258.931406 293.326285 
L 259.062187 293.32933 
" clip-path="url(#p66f785749d)" style="fill: none; stroke-dasharray: 1.5,2.475; stroke-dashoffset: 0; stroke: #2ca02c; stroke-width: 1.5"/>
   </g>
   <g id="patch_13">
    <path d="M 35.862187 320.4 
L 35.862187 238.870588 
" style="fill: none; stroke: #000000; stroke-width: 0.8; stroke-linejoin: miter; stroke-linecap: square"/>
   </g>
   <g id="patch_14">
    <path d="M 259.062187 320.4 
L 259.062187 238.870588 
" style="fill: none; stroke: #000000; stroke-width: 0.8; stroke-linejoin: miter; stroke-linecap: square"/>
   </g>
   <g id="patch_15">
    <path d="M 35.862187 320.4 
L 259.062187 320.4 
" style="fill: none; stroke: #000000; stroke-width: 0.8; stroke-linejoin: miter; stroke-linecap: square"/>
   </g>
   <g id="patch_16">
    <path d="M 35.862187 238.870588 
L 259.062187 238.870588 
" style="fill: none; stroke: #000000; stroke-width: 0.8; stroke-linejoin: miter; stroke-linecap: square"/>
   </g>
   <g id="text_28">
    <!-- CL = 100pF -->
    <g transform="translate(36.978187 317.264253)scale(0.1 -0.1)">
     <use xlink:href="#DejaVuSans-43"/>
     <use xlink:href="#DejaVuSans-4c" x="69.824219"/>
     <use xlink:href="#DejaVuSans-20" x="125.537109"/>
     <use xlink:href="#DejaVuSans-3d" x="157.324219"/>
     <use xlink:href="#DejaVuSans-20" x="241.113281"/>
     <use xlink:href="#DejaVuSans-31" x="272.900391"/>
     <use xlink:href="#DejaVuSans-30" x="336.523438"/>
     <use xlink:href="#DejaVuSans-30" x="400.146484"/>
     <use xlink:href="#DejaVuSans-70" x="463.769531"/>
     <use xlink:href="#DejaVuSans-46" x="527.246094"/>
    </g>
   </g>
   <g id="legend_1">
    <g id="patch_17">
     <path d="M 185.915312 290.904963 
L 252.062187 290.904963 
Q 254.062187 290.904963 254.062187 288.904963 
L 254.062187 245.870588 
Q 254.062187 243.870588 252.062187 243.870588 
L 185.915312 243.870588 
Q 183.915312 243.870588 183.915312 245.870588 
L 183.915312 288.904963 
Q 183.915312 290.904963 185.915312 290.904963 
z
" style="fill: #ffffff; opacity: 0.8; stroke: #cccccc; stroke-linejoin: miter"/>
    </g>
    <g id="line2d_52">
     <path d="M 187.915312 251.969026 
L 197.915312 251.969026 
L 207.915312 251.969026 
" style="fill: none; stroke-dasharray: 5.55,2.4; stroke-dashoffset: 0; stroke: #1f77b4; stroke-width: 1.5"/>
    </g>
    <g id="text_29">
     <!-- load -->
     <g transform="translate(215.915312 255.469026)scale(0.1 -0.1)">
      <use xlink:href="#DejaVuSans-6c"/>
      <use xlink:href="#DejaVuSans-6f" x="27.783203"/>
      <use xlink:href="#DejaVuSans-61" x="88.964844"/>
      <use xlink:href="#DejaVuSans-64" x="150.244141"/>
     </g>
    </g>
    <g id="line2d_53">
     <path d="M 187.915312 266.647151 
L 197.915312 266.647151 
L 207.915312 266.647151 
" style="fill: none; stroke: #ff7f0e; stroke-width: 1.5; stroke-linecap: square"/>
    </g>
    <g id="text_30">
     <!-- middle -->
     <g transform="translate(215.915312 270.147151)scale(0.1 -0.1)">
      <use xlink:href="#DejaVuSans-6d"/>
      <use xlink:href="#DejaVuSans-69" x="97.412109"/>
      <use xlink:href="#DejaVuSans-64" x="125.195312"/>
      <use xlink:href="#DejaVuSans-64" x="188.671875"/>
      <use xlink:href="#DejaVuSans-6c" x="252.148438"/>
      <use xlink:href="#DejaVuSans-65" x="279.931641"/>
     </g>
    </g>
    <g id="line2d_54">
     <path d="M 187.915312 281.325276 
L 197.915312 281.325276 
L 207.915312 281.325276 
" style="fill: none; stroke-dasharray: 1.5,2.475; stroke-dashoffset: 0; stroke: #2ca02c; stroke-width: 1.5"/>
    </g>
    <g id="text_31">
     <!-- source -->
     <g transform="translate(215.915312 284.825276)scale(0.1 -0.1)">
      <defs>
       <path id="DejaVuSans-75" d="M 544 1381 
L 544 3500 
L 1119 3500 
L 1119 1403 
Q 1119 906 1312 657 
Q 1506 409 1894 409 
Q 2359 409 2629 706 
Q 2900 1003 2900 1516 
L 2900 3500 
L 3475 3500 
L 3475 0 
L 2900 0 
L 2900 538 
Q 2691 219 2414 64 
Q 2138 -91 1772 -91 
Q 1169 -91 856 284 
Q 544 659 544 1381 
z
M 1991 3584 
L 1991 3584 
z
" transform="scale(0.015625)"/>
      </defs>
      <use xlink:href="#DejaVuSans-73"/>
      <use xlink:href="#DejaVuSans-6f" x="52.099609"/>
      <use xlink:href="#DejaVuSans-75" x="113.28125"/>
      <use xlink:href="#DejaVuSans-72" x="176.660156"/>
      <use xlink:href="#DejaVuSans-63" x="215.523438"/>
      <use xlink:href="#DejaVuSans-65" x="270.503906"/>
     </g>
    </g>
   </g>
  </g>
  <g id="text_32">
   <!-- Parallel load termination -->
   <g transform="translate(70.474687 16.318125)scale(0.12 -0.12)">
    <defs>
     <path id="DejaVuSans-50" d="M 1259 4147 
L 1259 2394 
L 2053 2394 
Q 2494 2394 2734 2622 
Q 2975 2850 2975 3272 
Q 2975 3691 2734 3919 
Q 2494 4147 2053 4147 
L 1259 4147 
z
M 628 4666 
L 2053 4666 
Q 2838 4666 3239 4311 
Q 3641 3956 3641 3272 
Q 3641 2581 3239 2228 
Q 2838 1875 2053 1875 
L 1259 1875 
L 1259 0 
L 628 0 
L 628 4666 
z
" transform="scale(0.015625)"/>
     <path id="DejaVuSans-6e" d="M 3513 2113 
L 3513 0 
L 2938 0 
L 2938 2094 
Q 2938 2591 2744 2837 
Q 2550 3084 2163 3084 
Q 1697 3084 1428 2787 
Q 1159 2491 1159 1978 
L 1159 0 
L 581 0 
L 581 3500 
L 1159 3500 
L 1159 2956 
Q 1366 3272 1645 3428 
Q 1925 3584 2291 3584 
Q 2894 3584 3203 3211 
Q 3513 2838 3513 2113 
z
" transform="scale(0.015625)"/>
    </defs>
    <use xlink:href="#DejaVuSans-50"/>
    <use xlink:href="#DejaVuSans-61" x="55.802734"/>
    <use xlink:href="#DejaVuSans-72" x="117.082031"/>
    <use xlink:href="#DejaVuSans-61" x="158.195312"/>
    <use xlink:href="#DejaVuSans-6c" x="219.474609"/>
    <use xlink:href="#DejaVuSans-6c" x="247.257812"/>
    <use xlink:href="#DejaVuSans-65" x="275.041016"/>
    <use xlink:href="#DejaVuSans-6c" x="336.564453"/>
    <use xlink:href="#DejaVuSans-20" x="364.347656"/>
    <use xlink:href="#DejaVuSans-6c" x="396.134766"/>
    <use xlink:href="#DejaVuSans-6f" x="423.917969"/>
    <use xlink:href="#DejaVuSans-61" x="485.099609"/>
    <use xlink:href="#DejaVuSans-64" x="546.378906"/>
    <use xlink:href="#DejaVuSans-20" x="609.855469"/>
    <use xlink:href="#DejaVuSans-74" x="641.642578"/>
    <use xlink:href="#DejaVuSans-65" x="680.851562"/>
    <use xlink:href="#DejaVuSans-72" x="742.375"/>
    <use xlink:href="#DejaVuSans-6d" x="781.738281"/>
    <use xlink:href="#DejaVuSans-69" x="879.150391"/>
    <use xlink:href="#DejaVuSans-6e" x="906.933594"/>
    <use xlink:href="#DejaVuSans-61" x="970.3125"/>
    <use xlink:href="#DejaVuSans-74" x="1031.591797"/>
    <use xlink:href="#DejaVuSans-69" x="1070.800781"/>
    <use xlink:href="#DejaVuSans-6f" x="1098.583984"/>
    <use xlink:href="#DejaVuSans-6e" x="1159.765625"/>
   </g>
   <!-- zSrc=20, zTrace=100, zTerm=100||xx pF -->
   <g transform="translate(7.2 29.8185)scale(0.12 -0.12)">
    <defs>
     <path id="DejaVuSans-7a" d="M 353 3500 
L 3084 3500 
L 3084 2975 
L 922 459 
L 3084 459 
L 3084 0 
L 275 0 
L 275 525 
L 2438 3041 
L 353 3041 
L 353 3500 
z
" transform="scale(0.015625)"/>
     <path id="DejaVuSans-53" d="M 3425 4513 
L 3425 3897 
Q 3066 4069 2747 4153 
Q 2428 4238 2131 4238 
Q 1616 4238 1336 4038 
Q 1056 3838 1056 3469 
Q 1056 3159 1242 3001 
Q 1428 2844 1947 2747 
L 2328 2669 
Q 3034 2534 3370 2195 
Q 3706 1856 3706 1288 
Q 3706 609 3251 259 
Q 2797 -91 1919 -91 
Q 1588 -91 1214 -16 
Q 841 59 441 206 
L 441 856 
Q 825 641 1194 531 
Q 1563 422 1919 422 
Q 2459 422 2753 634 
Q 3047 847 3047 1241 
Q 3047 1584 2836 1778 
Q 2625 1972 2144 2069 
L 1759 2144 
Q 1053 2284 737 2584 
Q 422 2884 422 3419 
Q 422 4038 858 4394 
Q 1294 4750 2059 4750 
Q 2388 4750 2728 4690 
Q 3069 4631 3425 4513 
z
" transform="scale(0.015625)"/>
     <path id="DejaVuSans-3a9" d="M 4647 556 
L 4647 0 
L 2772 0 
L 2772 556 
Q 3325 859 3634 1378 
Q 3944 1897 3944 2528 
Q 3944 3278 3531 3731 
Q 3119 4184 2444 4184 
Q 1769 4184 1355 3729 
Q 941 3275 941 2528 
Q 941 1897 1250 1378 
Q 1563 859 2119 556 
L 2119 0 
L 244 0 
L 244 556 
L 1241 556 
Q 747 991 519 1456 
Q 294 1922 294 2497 
Q 294 3491 894 4106 
Q 1491 4722 2444 4722 
Q 3391 4722 3994 4106 
Q 4594 3494 4594 2528 
Q 4594 1922 4372 1459 
Q 4150 997 3647 556 
L 4647 556 
z
" transform="scale(0.015625)"/>
     <path id="DejaVuSans-2c" d="M 750 794 
L 1409 794 
L 1409 256 
L 897 -744 
L 494 -744 
L 750 256 
L 750 794 
z
" transform="scale(0.015625)"/>
     <path id="DejaVuSans-54" d="M -19 4666 
L 3928 4666 
L 3928 4134 
L 2272 4134 
L 2272 0 
L 1638 0 
L 1638 4134 
L -19 4134 
L -19 4666 
z
" transform="scale(0.015625)"/>
     <path id="DejaVuSans-7c" d="M 1344 4891 
L 1344 -1509 
L 813 -1509 
L 813 4891 
L 1344 4891 
z
" transform="scale(0.015625)"/>
     <path id="DejaVuSans-78" d="M 3513 3500 
L 2247 1797 
L 3578 0 
L 2900 0 
L 1881 1375 
L 863 0 
L 184 0 
L 1544 1831 
L 300 3500 
L 978 3500 
L 1906 2253 
L 2834 3500 
L 3513 3500 
z
" transform="scale(0.015625)"/>
    </defs>
    <use xlink:href="#DejaVuSans-7a"/>
    <use xlink:href="#DejaVuSans-53" x="52.490234"/>
    <use xlink:href="#DejaVuSans-72" x="115.966797"/>
    <use xlink:href="#DejaVuSans-63" x="154.830078"/>
    <use xlink:href="#DejaVuSans-3d" x="209.810547"/>
    <use xlink:href="#DejaVuSans-32" x="293.599609"/>
    <use xlink:href="#DejaVuSans-30" x="357.222656"/>
    <use xlink:href="#DejaVuSans-3a9" x="420.845703"/>
    <use xlink:href="#DejaVuSans-2c" x="497.261719"/>
    <use xlink:href="#DejaVuSans-20" x="529.048828"/>
    <use xlink:href="#DejaVuSans-7a" x="560.835938"/>
    <use xlink:href="#DejaVuSans-54" x="613.326172"/>
    <use xlink:href="#DejaVuSans-72" x="659.660156"/>
    <use xlink:href="#DejaVuSans-61" x="700.773438"/>
    <use xlink:href="#DejaVuSans-63" x="762.052734"/>
    <use xlink:href="#DejaVuSans-65" x="817.033203"/>
    <use xlink:href="#DejaVuSans-3d" x="878.556641"/>
    <use xlink:href="#DejaVuSans-31" x="962.345703"/>
    <use xlink:href="#DejaVuSans-30" x="1025.96875"/>
    <use xlink:href="#DejaVuSans-30" x="1089.591797"/>
    <use xlink:href="#DejaVuSans-3a9" x="1153.214844"/>
    <use xlink:href="#DejaVuSans-2c" x="1229.630859"/>
    <use xlink:href="#DejaVuSans-20" x="1261.417969"/>
    <use xlink:href="#DejaVuSans-7a" x="1293.205078"/>
    <use xlink:href="#DejaVuSans-54" x="1345.695312"/>
    <use xlink:href="#DejaVuSans-65" x="1389.779297"/>
    <use xlink:href="#DejaVuSans-72" x="1451.302734"/>
    <use xlink:href="#DejaVuSans-6d" x="1490.666016"/>
    <use xlink:href="#DejaVuSans-3d" x="1588.078125"/>
    <use xlink:href="#DejaVuSans-31" x="1671.867188"/>
    <use xlink:href="#DejaVuSans-30" x="1735.490234"/>
    <use xlink:href="#DejaVuSans-30" x="1799.113281"/>
    <use xlink:href="#DejaVuSans-3a9" x="1862.736328"/>
    <use xlink:href="#DejaVuSans-7c" x="1939.152344"/>
    <use xlink:href="#DejaVuSans-7c" x="1972.84375"/>
    <use xlink:href="#DejaVuSans-78" x="2006.535156"/>
    <use xlink:href="#DejaVuSans-78" x="2065.714844"/>
    <use xlink:href="#DejaVuSans-20" x="2124.894531"/>
    <use xlink:href="#DejaVuSans-70" x="2156.681641"/>
    <use xlink:href="#DejaVuSans-46" x="2220.158203"/>
   </g>
  </g>
 </g>
 <defs>
  <clipPath id="p0080c972e7">
   <rect x="35.862187" y="43.2" width="223.2" height="81.529412"/>
  </clipPath>
  <clipPath id="p41ad5ecffe">
   <rect x="35.862187" y="141.035294" width="223.2" height="81.529412"/>
  </clipPath>
  <clipPath id="p66f785749d">
   <rect x="35.862187" y="238.870588" width="223.2" height="81.529412"/>
  </clipPath>
 </defs>
</svg>
